<?xml version="1.0" encoding="iso-8859-1"?>
<!-- Generator: Adobe Illustrator 19.0.0, SVG Export Plug-In . SVG Version: 6.00 Build 0)  -->
<svg version="1.1" id="Layer_1" xmlns="http://www.w3.org/2000/svg" xmlns:xlink="http://www.w3.org/1999/xlink" x="0px" y="0px"
	 viewBox="0 0 512 512" style="enable-background:new 0 0 512 512;" xml:space="preserve">
<g>
	<g>
		<path d="M453.068,45.125H176.432C174.37,19.9,153.201,0,127.459,0h-21.343C80.353,0,59.17,19.924,57.129,45.171
			c-25.972,0.953-46.808,22.366-46.808,48.565v369.653c0,26.805,21.807,48.611,48.611,48.611h394.136
			c26.805,0,48.611-21.807,48.611-48.611V93.736C501.679,66.932,479.873,45.125,453.068,45.125z M478.668,463.389
			c0,14.116-11.484,25.6-25.6,25.6H58.932c-14.116,0-25.6-11.484-25.6-25.6V93.736c0-13.449,10.428-24.501,23.621-25.516v352.172
			c0,27.103,22.055,49.152,49.164,49.152h21.343c27.103,0,49.152-22.049,49.152-49.152V157.819c0-6.354-5.152-11.506-11.506-11.506
			c-6.353,0-11.506,5.151-11.506,11.506v262.573c0,14.414-11.727,26.141-26.141,26.141h-21.343
			c-14.42,0-26.152-11.727-26.152-26.141V49.164c0-14.42,11.732-26.152,26.152-26.152h21.343c14.413,0,26.141,11.732,26.141,26.152
			v42.583c0,6.355,5.152,11.506,11.506,11.506c6.353,0,11.506-5.151,11.506-11.506V68.136h276.457c14.116,0,25.6,11.484,25.6,25.6
			V463.389z"/>
	</g>
</g>
<g>
	<g>
		<path d="M442.115,107.025h-228.41c-6.353,0-11.506,5.151-11.506,11.506v66.433c0,6.355,5.152,11.506,11.506,11.506h228.41
			c6.353,0,11.506-5.151,11.506-11.506v-66.433C453.621,112.176,448.468,107.025,442.115,107.025z M430.609,173.459H225.211v-43.422
			h205.398V173.459z"/>
	</g>
</g>
<g>
	<g>
		<path d="M165.106,109.591c-6.353,0-11.506,5.151-11.506,11.506v3.452c0,6.355,5.152,11.506,11.506,11.506
			c6.353,0,11.506-5.151,11.506-11.506v-3.452C176.611,114.742,171.459,109.591,165.106,109.591z"/>
	</g>
</g>
<g>
	<g>
		<path d="M238.097,216.95c-19.794,0-35.898,16.099-35.898,35.886c0,19.794,16.103,35.898,35.898,35.898
			c19.793,0,35.896-16.104,35.896-35.898C273.995,233.049,257.892,216.95,238.097,216.95z M238.097,265.722
			c-7.106,0-12.886-5.78-12.886-12.886c0-7.099,5.78-12.875,12.886-12.875c7.105,0,12.885,5.776,12.885,12.875
			C250.984,259.942,245.202,265.722,238.097,265.722z"/>
	</g>
</g>
<g>
	<g>
		<path d="M327.91,216.95c-19.787,0-35.886,16.099-35.886,35.886c0,19.794,16.099,35.898,35.886,35.898
			c19.794,0,35.898-16.104,35.898-35.898C363.808,233.049,347.704,216.95,327.91,216.95z M327.91,265.722
			c-7.1,0-12.875-5.78-12.875-12.886c0-7.099,5.776-12.875,12.875-12.875c7.106,0,12.886,5.776,12.886,12.875
			C340.796,259.942,335.016,265.722,327.91,265.722z"/>
	</g>
</g>
<g>
	<g>
		<path d="M417.735,216.95c-19.794,0-35.898,16.099-35.898,35.886c0,19.794,16.103,35.898,35.898,35.898
			c19.787,0,35.885-16.104,35.885-35.898C453.621,233.049,437.523,216.95,417.735,216.95z M417.735,265.722
			c-7.106,0-12.886-5.78-12.886-12.886c0-7.099,5.78-12.875,12.886-12.875c7.099,0,12.874,5.776,12.874,12.875
			C430.609,259.942,424.833,265.722,417.735,265.722z"/>
	</g>
</g>
<g>
	<g>
		<path d="M238.097,302.448c-19.794,0-35.898,16.103-35.898,35.898c0,19.794,16.103,35.898,35.898,35.898
			c19.793,0,35.896-16.104,35.896-35.898C273.994,318.553,257.892,302.448,238.097,302.448z M238.097,351.232
			c-7.106,0-12.886-5.78-12.886-12.886s5.78-12.886,12.886-12.886c7.105,0,12.885,5.78,12.885,12.886
			S245.202,351.232,238.097,351.232z"/>
	</g>
</g>
<g>
	<g>
		<path d="M327.91,302.448c-19.787,0-35.886,16.103-35.886,35.898c0,19.794,16.099,35.898,35.886,35.898
			c19.794,0,35.898-16.104,35.898-35.898C363.808,318.553,347.704,302.448,327.91,302.448z M327.91,351.232
			c-7.1,0-12.875-5.78-12.875-12.886s5.776-12.886,12.875-12.886c7.106,0,12.886,5.78,12.886,12.886S335.016,351.232,327.91,351.232
			z"/>
	</g>
</g>
<g>
	<g>
		<path d="M417.735,302.448c-19.794,0-35.898,16.103-35.898,35.898c0,19.794,16.103,35.898,35.898,35.898
			c19.787,0,35.885-16.104,35.885-35.898C453.619,318.553,437.523,302.448,417.735,302.448z M417.735,351.232
			c-7.106,0-12.886-5.78-12.886-12.886s5.78-12.886,12.886-12.886c7.099,0,12.874,5.78,12.874,12.886
			S424.833,351.232,417.735,351.232z"/>
	</g>
</g>
<g>
	<g>
		<path d="M238.097,387.946c-19.794,0-35.898,16.103-35.898,35.898c0,19.794,16.103,35.898,35.898,35.898
			c19.793,0,35.896-16.104,35.896-35.898C273.994,404.051,257.892,387.946,238.097,387.946z M238.097,436.73
			c-7.106,0-12.886-5.78-12.886-12.886c0-7.105,5.78-12.886,12.886-12.886c7.105,0,12.885,5.78,12.885,12.886
			C250.984,430.95,245.202,436.73,238.097,436.73z"/>
	</g>
</g>
<g>
	<g>
		<path d="M327.91,387.946c-19.787,0-35.886,16.103-35.886,35.898c0,19.794,16.099,35.898,35.886,35.898
			c19.794,0,35.898-16.104,35.898-35.898C363.808,404.051,347.704,387.946,327.91,387.946z M327.91,436.73
			c-7.1,0-12.875-5.78-12.875-12.886c0-7.105,5.776-12.886,12.875-12.886c7.106,0,12.886,5.78,12.886,12.886
			S335.016,436.73,327.91,436.73z"/>
	</g>
</g>
<g>
	<g>
		<path d="M417.735,387.946c-19.794,0-35.898,16.103-35.898,35.898c0,19.794,16.103,35.898,35.898,35.898
			c19.787,0,35.885-16.104,35.885-35.898C453.619,404.051,437.523,387.946,417.735,387.946z M417.735,436.73
			c-7.106,0-12.886-5.78-12.886-12.886c0-7.105,5.78-12.886,12.886-12.886c7.099,0,12.874,5.78,12.874,12.886
			C430.609,430.95,424.833,436.73,417.735,436.73z"/>
	</g>
</g>
<g>
</g>
<g>
</g>
<g>
</g>
<g>
</g>
<g>
</g>
<g>
</g>
<g>
</g>
<g>
</g>
<g>
</g>
<g>
</g>
<g>
</g>
<g>
</g>
<g>
</g>
<g>
</g>
<g>
</g>
</svg>
