<svg id="_x31_" enable-background="new 0 0 24 24" height="22" viewBox="0 0 24 24" width="22" xmlns="http://www.w3.org/2000/svg"><path d="m19.5 24h-15c-1.379 0-2.5-1.122-2.5-2.5v-19c0-1.378 1.121-2.5 2.5-2.5h15c1.379 0 2.5 1.122 2.5 2.5v19c0 1.378-1.121 2.5-2.5 2.5zm-15-23c-.827 0-1.5.673-1.5 1.5v19c0 .827.673 1.5 1.5 1.5h15c.827 0 1.5-.673 1.5-1.5v-19c0-.827-.673-1.5-1.5-1.5z"/><path d="m13.5 20h-3c-.276 0-.5-.224-.5-.5v-5c0-.276.224-.5.5-.5s.5.224.5.5v4.5h2.5c.276 0 .5.224.5.5s-.224.5-.5.5z"/><path d="m8.5 20c-.169 0-.335-.086-.429-.243l-3-5c-.143-.237-.065-.544.172-.686.234-.14.543-.065.686.171l3 5c.143.237.065.544-.172.686-.08.049-.169.072-.257.072z"/><path d="m5.5 20c-.088 0-.177-.023-.257-.071-.237-.142-.314-.449-.172-.686l3-5c.144-.237.453-.312.686-.171.237.142.314.449.172.686l-3 5c-.094.156-.26.242-.429.242z"/><path d="m17.25 20h-1.75c-.276 0-.5-.224-.5-.5s.224-.5.5-.5h1.75c.413 0 .75-.336.75-.75s-.337-.75-.75-.75h-.5c-.965 0-1.75-.785-1.75-1.75s.785-1.75 1.75-1.75h1.75c.276 0 .5.224.5.5s-.224.5-.5.5h-1.75c-.413 0-.75.336-.75.75s.337.75.75.75h.5c.965 0 1.75.785 1.75 1.75s-.785 1.75-1.75 1.75z"/></svg>